HIERARCHY
ROOT root
{
	OFFSET 0.000000 0.000000 0.000000
	CHANNELS 6 Xposition Yposition Zposition Zrotation Yrotation Xrotation
	JOINT lhip
	{
		OFFSET 0.058581 -0.082280 -0.017664
		CHANNELS 3 Zrotation Yrotation Xrotation
		JOINT lknee
		{
			OFFSET 0.043451 -0.386469 0.008037
			CHANNELS 3 Zrotation Yrotation Xrotation
			JOINT lankle
			{
				OFFSET -0.014790 -0.426874 -0.037428
				CHANNELS 3 Zrotation Yrotation Xrotation
				JOINT ltoe
				{
					OFFSET 0.041054 -0.060286 0.122042
					CHANNELS 3 Zrotation Yrotation Xrotation
					End Site
					{
						OFFSET 0.000000 0.000000 0.000000
					}
				}
			}
		}
	}
	JOINT rhip
	{
		OFFSET -0.060310 -0.090513 -0.013543
		CHANNELS 3 Zrotation Yrotation Xrotation
		JOINT rknee
		{
			OFFSET -0.043257 -0.383688 -0.004843
			CHANNELS 3 Zrotation Yrotation Xrotation
			JOINT rankle
			{
				OFFSET 0.019056 -0.420046 -0.034562
				CHANNELS 3 Zrotation Yrotation Xrotation
				JOINT rtoe
				{
					OFFSET -0.034840 -0.062106 0.130323
					CHANNELS 3 Zrotation Yrotation Xrotation
					End Site
					{
						OFFSET 0.000000 0.000000 0.000000
					}
				}
			}
		}
	}
	JOINT lowerback
	{
		OFFSET 0.004439 0.124404 -0.038385
		CHANNELS 3 Zrotation Yrotation Xrotation
		JOINT upperback
		{
			OFFSET 0.004488 0.137956 0.026820
			CHANNELS 3 Zrotation Yrotation Xrotation
			JOINT chest
			{
				OFFSET -0.002265 0.056032 0.002855
				CHANNELS 3 Zrotation Yrotation Xrotation
				JOINT lowerneck
				{
					OFFSET -0.013390 0.211636 -0.033468
					CHANNELS 3 Zrotation Yrotation Xrotation
					JOINT upperneck
					{
						OFFSET 0.010113 0.088937 0.050410
						CHANNELS 3 Zrotation Yrotation Xrotation
						End Site
						{
							OFFSET 0.000000 0.000000 0.000000
						}
					}
				}
				JOINT lclavicle
				{
					OFFSET 0.071702 0.114000 -0.018898
					CHANNELS 3 Zrotation Yrotation Xrotation
					JOINT lshoulder
					{
						OFFSET 0.122921 0.045205 -0.019046
						CHANNELS 3 Zrotation Yrotation Xrotation
						JOINT lelbow
						{
							OFFSET 0.255332 -0.015649 -0.022946
							CHANNELS 3 Zrotation Yrotation Xrotation
							JOINT lwrist
							{
								OFFSET 0.265709 0.012698 -0.007375
								CHANNELS 3 Zrotation Yrotation Xrotation
								End Site
								{
									OFFSET 0.000000 0.000000 0.000000
								}
							}
						}
					}
				}
				JOINT rclavicle
				{
					OFFSET -0.082954 0.112472 -0.023707
					CHANNELS 3 Zrotation Yrotation Xrotation
					JOINT rshoulder
					{
						OFFSET -0.113228 0.046853 -0.008472
						CHANNELS 3 Zrotation Yrotation Xrotation
						JOINT relbow
						{
							OFFSET -0.260127 -0.014369 -0.031269
							CHANNELS 3 Zrotation Yrotation Xrotation
							JOINT rwrist
							{
								OFFSET -0.269108 0.006794 -0.006027
								CHANNELS 3 Zrotation Yrotation Xrotation
								End Site
								{
									OFFSET 0.000000 0.000000 0.000000
								}
							}
						}
					}
				}
			}
		}
	}
}
MOTION
Frames: 7
Frame Time: 0.033333
-0.322957 0.613529 1.018512 116.779644 2.612380 92.999034 6.281306 -6.711942 -5.900835 -5.875683 -14.018074 6.601093 3.191698 -5.095644 -14.107144 0.000000 -0.000000 0.000000 -13.936855 -14.876758 11.511935 -4.888917 -2.939105 14.365597 6.548430 -8.443495 20.295522 0.000000 -0.000000 0.000000 -1.093764 13.596571 5.689760 -6.125627 9.270835 13.745983 -1.095386 7.660440 -1.458730 -6.593786 -22.926474 -3.634757 9.244153 -8.872719 -11.118097 -8.193438 6.868932 -1.041080 -60.623225 -8.864008 3.766514 178.312704 -63.880073 -158.123517 24.975317 -7.547866 -23.384962 0.411647 27.622243 -21.591050 96.572711 28.067833 46.046364 -0.424130 74.989096 7.055357 5.141541 12.087786 16.286526 
-0.320440 0.610966 1.017307 121.728491 1.759225 93.073480 5.294760 -8.536070 -6.788561 -5.507300 -14.560105 6.846202 3.989258 -6.375793 -13.729635 0.000000 -0.000000 0.000000 -13.569016 -14.649667 12.969260 -5.208786 -5.715106 14.513857 5.837044 -7.997793 20.783078 0.000000 -0.000000 0.000000 -0.764484 14.617327 5.845680 -6.848359 9.884112 13.607168 -1.820851 9.929517 -1.837793 -5.122865 -22.550205 -2.228591 10.859406 -10.513975 -11.241866 -6.490373 5.431451 0.477291 -62.227743 -7.732828 4.655172 176.795972 -62.898071 -155.719239 23.580234 -8.646790 -22.867968 -1.689101 29.311487 -12.120398 96.599394 31.545802 40.919916 -6.211344 80.070599 8.706210 3.917941 12.591332 11.696288 
-0.318406 0.608110 1.016856 126.202451 0.715924 92.996885 4.092084 -10.265138 -8.180424 -5.411538 -15.199196 7.792401 4.432449 -7.728625 -13.353818 0.000000 -0.000000 0.000000 -13.727324 -15.549335 14.456383 -5.439746 -7.613052 13.799097 2.213576 -6.760456 20.335325 0.000000 -0.000000 0.000000 -0.303953 15.740821 7.042283 -7.571859 10.319472 11.943032 -2.073647 11.897479 -2.152941 -5.134133 -22.832098 -0.719171 12.267285 -11.464269 -11.096886 -7.424605 4.193065 0.520189 -60.660774 -5.645342 5.011092 177.668530 -62.410470 -156.233678 23.688634 -8.660285 -23.521278 1.195713 31.371392 -2.755429 93.918247 34.282419 35.647776 -4.254891 83.236250 15.180240 2.193952 12.453855 7.831280 
-0.315441 0.602140 1.018147 129.230029 -0.209989 91.742903 2.729689 -11.291222 -8.586719 -5.275556 -15.426234 8.676027 3.771943 -9.132756 -13.295003 0.000000 -0.000000 0.000000 -15.287564 -16.698711 16.882877 -5.369525 -11.122747 12.594825 6.477548 -5.643135 20.870408 0.000000 -0.000000 0.000000 0.950353 17.449033 8.279355 -7.608692 11.999139 11.139826 -2.128029 14.246936 -2.394335 -4.829745 -21.814244 0.040821 11.771304 -13.377769 -10.458575 -10.941200 4.312184 -1.110714 -57.815241 -3.459292 6.413405 178.354744 -62.126796 -156.856877 23.890343 -8.744165 -23.335020 8.423215 32.447961 6.034528 87.456214 35.590270 30.950150 -3.226757 85.440276 16.893715 1.083530 12.698303 6.686698 
-0.313879 0.599956 1.019315 129.527837 -0.171569 91.422387 2.681309 -11.054414 -8.516230 -5.222165 -15.600427 8.860036 3.587005 -9.480402 -13.303363 0.000000 -0.000000 0.000000 -15.661562 -17.537572 17.838164 -5.228794 -10.786671 11.591222 7.029058 -5.242363 21.426403 0.000000 -0.000000 0.000000 1.315711 17.876327 7.706152 -7.327007 12.484968 11.922702 -2.011265 14.803765 -2.706602 -5.074179 -21.617876 0.540149 11.726024 -13.107916 -10.463442 -11.532278 4.579857 -1.564340 -57.886453 -2.665102 6.595188 178.820519 -61.701917 -157.140287 24.385550 -8.226272 -23.248658 9.163839 32.620466 6.641562 86.361069 35.362654 30.064292 2.617655 85.846191 22.245067 1.207621 13.082658 6.980070 
-0.315325 0.596205 1.021046 129.075148 -0.467984 91.354182 2.259969 -11.368938 -8.830903 -4.929314 -14.968395 8.902249 3.481490 -9.222065 -12.854671 0.000000 -0.000000 0.000000 -16.657830 -17.856694 18.069662 -4.682942 -11.432540 10.816832 7.760787 -4.858803 21.990047 0.000000 -0.000000 0.000000 2.258399 18.348936 7.133564 -7.585697 13.384430 12.096073 -2.345348 15.563096 -2.649640 -4.789012 -21.201555 0.316089 11.305752 -12.464294 -9.691186 -11.823596 5.533189 -2.422868 -59.138025 -1.858883 7.060906 179.485887 -61.336789 -157.738411 24.277522 -8.180988 -22.895324 10.161936 32.825582 7.325890 85.506763 35.427401 29.618474 5.726375 86.786340 24.796921 2.516241 14.126248 8.244228 
-0.315150 0.592437 1.023525 127.346627 -0.265666 91.042351 2.486212 -10.761987 -8.453277 -4.746380 -14.191688 8.682373 3.463736 -8.798553 -12.742205 0.000000 -0.000000 0.000000 -17.498707 -18.319965 18.458656 -4.021564 -11.579716 9.589835 8.755564 -4.564324 22.760873 0.000000 -0.000000 0.000000 2.803209 18.945105 6.510665 -7.260835 14.113328 11.947797 -1.966215 15.897496 -2.471821 -4.693638 -20.910815 0.110488 10.643529 -11.380012 -9.351214 -12.307434 6.041495 -2.818120 -59.954382 -1.522298 7.319109 179.915690 -61.045119 -158.827531 25.473505 -8.036961 -23.868135 10.540674 32.569975 7.473834 84.722490 35.397047 29.388043 8.484887 88.161699 26.735753 3.076348 14.432334 8.911608 
